<svg xmlns="http://www.w3.org/2000/svg" viewBox="0 0 1200 760" role="img" aria-labelledby="title desc">
  <title id="title">고등학교 교실</title>
  <desc id="desc">책상과 창문이 있는 밝은 교실 배경</desc>
  <defs>
    <linearGradient id="wall" x1="0" x2="0" y1="0" y2="1">
      <stop offset="0" stop-color="#e7f2f1"/>
      <stop offset="1" stop-color="#cfdfe0"/>
    </linearGradient>
    <linearGradient id="floor" x1="0" x2="0" y1="0" y2="1">
      <stop offset="0" stop-color="#d9b06c"/>
      <stop offset="1" stop-color="#a46d39"/>
    </linearGradient>
  </defs>
  <rect width="1200" height="760" fill="url(#wall)"/>
  <rect y="492" width="1200" height="268" fill="url(#floor)"/>
  <path d="M0 492h1200" stroke="#8f9fa3" stroke-width="6"/>
  <path d="M0 560h1200M0 640h1200" stroke="#8b5c34" stroke-width="2" opacity=".35"/>
  <path d="M126 640l122-148M330 760l104-268M557 760l28-268M813 760L713 492M1030 760L840 492" stroke="#8b5c34" stroke-width="2" opacity=".38"/>

  <rect x="72" y="72" width="460" height="278" rx="8" fill="#f8fcff" stroke="#7aa3b2" stroke-width="8"/>
  <path d="M302 74v274M74 211h456" stroke="#7aa3b2" stroke-width="6"/>
  <rect x="90" y="90" width="194" height="104" fill="#b8ddea"/>
  <rect x="320" y="90" width="194" height="104" fill="#b8ddea"/>
  <rect x="90" y="228" width="194" height="104" fill="#d4edf4"/>
  <rect x="320" y="228" width="194" height="104" fill="#d4edf4"/>
  <path d="M110 165c72-54 131-67 176-39M341 160c42-35 93-45 150-30" stroke="#fffaf2" stroke-width="8" stroke-linecap="round" opacity=".65"/>

  <rect x="682" y="94" width="400" height="226" rx="8" fill="#395c49" stroke="#7a5b36" stroke-width="12"/>
  <path d="M725 148h220M725 198h300M725 248h188" stroke="#dce9c9" stroke-width="8" stroke-linecap="round" opacity=".8"/>
  <rect x="720" y="334" width="338" height="28" rx="6" fill="#a86f3c"/>
  <rect x="626" y="88" width="36" height="348" fill="#b17944"/>
  <rect x="621" y="76" width="46" height="20" rx="4" fill="#8a5631"/>
  <rect x="615" y="432" width="58" height="90" fill="#8a5631"/>
  <path d="M625 142h27M625 194h27M625 246h27M625 298h27" stroke="#e4ba6e" stroke-width="10"/>

  <g opacity=".96">
    <path d="M142 564h198l34 98H105z" fill="#d08a44" stroke="#784f2e" stroke-width="5"/>
    <path d="M132 662h18v60h-18zM320 662h18v60h-18z" fill="#5f3f2c"/>
    <path d="M476 562h204l40 100H438z" fill="#c77d45" stroke="#784f2e" stroke-width="5"/>
    <path d="M462 662h18v60h-18zM678 662h18v60h-18z" fill="#5f3f2c"/>
    <path d="M770 562h190l37 98H733z" fill="#db974e" stroke="#784f2e" stroke-width="5"/>
    <path d="M748 660h18v62h-18zM955 660h18v62h-18z" fill="#5f3f2c"/>
    <path d="M312 462h160l28 74H283z" fill="#cf8948" stroke="#784f2e" stroke-width="4"/>
    <path d="M590 454h164l28 75H560z" fill="#d7954c" stroke="#784f2e" stroke-width="4"/>
  </g>
  <rect x="240" y="430" width="56" height="42" rx="4" fill="#456f85"/>
  <rect x="606" y="420" width="74" height="12" rx="4" fill="#f0d36f"/>
  <rect x="880" y="426" width="52" height="48" rx="4" fill="#b24e45"/>
  <path d="M1018 388l74-22 15 51-75 18z" fill="#f5f0dd" stroke="#aa8c62" stroke-width="4"/>
</svg>
